<svg xmlns="http://www.w3.org/2000/svg" width="1200" height="780" viewBox="0 0 1200 780"><rect width="100%" height="100%" fill="white"/><defs><marker id="arrow" markerWidth="10" markerHeight="10" refX="10" refY="3" orient="auto" markerUnits="strokeWidth"><path d="M0,0 L0,6 L9,3 z" fill="#475569"/></marker></defs><text x="600" y="35" font-family="Arial" font-size="24" font-weight="bold" text-anchor="middle" fill="#0f172a">Diagrama de Caso de Uso Geral</text><rect x="60" y="100" width="180" height="70" rx="10" fill="#E0F2FE" stroke="#334155" stroke-width="1.5"/><text x="150.0" y="128" font-family="Arial" font-size="14" text-anchor="middle" fill="#0f172a">Administrador/RH</text><rect x="60" y="330" width="180" height="70" rx="10" fill="#E0F2FE" stroke="#334155" stroke-width="1.5"/><text x="150.0" y="358" font-family="Arial" font-size="14" text-anchor="middle" fill="#0f172a">Colaborador</text><rect x="60" y="560" width="180" height="70" rx="10" fill="#E0F2FE" stroke="#334155" stroke-width="1.5"/><text x="150.0" y="588" font-family="Arial" font-size="14" text-anchor="middle" fill="#0f172a">Responsavel pelo</text><text x="150.0" y="606" font-family="Arial" font-size="14" text-anchor="middle" fill="#0f172a">Treinamento</text><ellipse cx="470" cy="115" rx="120" ry="35" fill="#F8FAFC" stroke="#334155"/><text x="470" y="120" font-family="Arial" font-size="14" text-anchor="middle">Cadastrar colaborador</text><ellipse cx="470" cy="205" rx="120" ry="35" fill="#F8FAFC" stroke="#334155"/><text x="470" y="210" font-family="Arial" font-size="14" text-anchor="middle">Cadastrar treinamento</text><ellipse cx="470" cy="295" rx="120" ry="35" fill="#F8FAFC" stroke="#334155"/><text x="470" y="300" font-family="Arial" font-size="14" text-anchor="middle">Inscrever participante</text><ellipse cx="470" cy="385" rx="120" ry="35" fill="#F8FAFC" stroke="#334155"/><text x="470" y="390" font-family="Arial" font-size="14" text-anchor="middle">Emitir certificado</text><ellipse cx="470" cy="475" rx="120" ry="35" fill="#F8FAFC" stroke="#334155"/><text x="470" y="480" font-family="Arial" font-size="14" text-anchor="middle">Gerar relatorio</text><ellipse cx="880" cy="205" rx="120" ry="35" fill="#F8FAFC" stroke="#334155"/><text x="880" y="210" font-family="Arial" font-size="14" text-anchor="middle">Consultar treinamentos</text><ellipse cx="880" cy="295" rx="120" ry="35" fill="#F8FAFC" stroke="#334155"/><text x="880" y="300" font-family="Arial" font-size="14" text-anchor="middle">Realizar inscricao</text><ellipse cx="880" cy="385" rx="120" ry="35" fill="#F8FAFC" stroke="#334155"/><text x="880" y="390" font-family="Arial" font-size="14" text-anchor="middle">Consultar certificado</text><ellipse cx="880" cy="575" rx="120" ry="35" fill="#F8FAFC" stroke="#334155"/><text x="880" y="580" font-family="Arial" font-size="14" text-anchor="middle">Registrar presenca/progresso</text><line x1="240" y1="135" x2="350" y2="115" stroke="#475569" stroke-width="1.5" marker-end="url(#arrow)"/><line x1="240" y1="135" x2="350" y2="205" stroke="#475569" stroke-width="1.5" marker-end="url(#arrow)"/><line x1="240" y1="135" x2="350" y2="295" stroke="#475569" stroke-width="1.5" marker-end="url(#arrow)"/><line x1="240" y1="135" x2="350" y2="385" stroke="#475569" stroke-width="1.5" marker-end="url(#arrow)"/><line x1="240" y1="135" x2="350" y2="475" stroke="#475569" stroke-width="1.5" marker-end="url(#arrow)"/><line x1="240" y1="365" x2="760" y2="205" stroke="#475569" stroke-width="1.5" marker-end="url(#arrow)"/><line x1="240" y1="365" x2="760" y2="295" stroke="#475569" stroke-width="1.5" marker-end="url(#arrow)"/><line x1="240" y1="365" x2="760" y2="385" stroke="#475569" stroke-width="1.5" marker-end="url(#arrow)"/><line x1="240" y1="595" x2="760" y2="575" stroke="#475569" stroke-width="1.5" marker-end="url(#arrow)"/></svg>