<svg xmlns="http://www.w3.org/2000/svg" width="1200" height="780" viewBox="0 0 1200 780"><rect width="100%" height="100%" fill="white"/><defs><marker id="arrow" markerWidth="10" markerHeight="10" refX="10" refY="3" orient="auto" markerUnits="strokeWidth"><path d="M0,0 L0,6 L9,3 z" fill="#475569"/></marker></defs><text x="600" y="35" font-family="Arial" font-size="24" font-weight="bold" text-anchor="middle" fill="#0f172a">Diagrama de Atividades - Emissao de Certificado</text><rect x="500" y="70" width="260" height="55" rx="10" fill="#DCFCE7" stroke="#334155" stroke-width="1.5"/><text x="630.0" y="98" font-family="Arial" font-size="14" text-anchor="middle" fill="#0f172a">Inicio</text><rect x="430" y="150" width="260" height="55" rx="10" fill="#F8FAFC" stroke="#334155" stroke-width="1.5"/><text x="560.0" y="178" font-family="Arial" font-size="14" text-anchor="middle" fill="#0f172a">Selecionar participante e treinamento</text><rect x="455" y="240" width="260" height="55" rx="10" fill="#FEF3C7" stroke="#334155" stroke-width="1.5"/><text x="585.0" y="268" font-family="Arial" font-size="14" text-anchor="middle" fill="#0f172a">Treinamento finalizado?</text><rect x="445" y="335" width="260" height="55" rx="10" fill="#FEF3C7" stroke="#334155" stroke-width="1.5"/><text x="575.0" y="363" font-family="Arial" font-size="14" text-anchor="middle" fill="#0f172a">Progresso igual a 100%?</text><rect x="455" y="430" width="260" height="55" rx="10" fill="#FEF3C7" stroke="#334155" stroke-width="1.5"/><text x="585.0" y="458" font-family="Arial" font-size="14" text-anchor="middle" fill="#0f172a">Certificado ja existe?</text><rect x="410" y="525" width="260" height="55" rx="10" fill="#F8FAFC" stroke="#334155" stroke-width="1.5"/><text x="540.0" y="553" font-family="Arial" font-size="14" text-anchor="middle" fill="#0f172a">Gerar codigo e emitir certificado</text><rect x="430" y="620" width="260" height="55" rx="10" fill="#F8FAFC" stroke="#334155" stroke-width="1.5"/><text x="560.0" y="648" font-family="Arial" font-size="14" text-anchor="middle" fill="#0f172a">Salvar certificado no banco</text><rect x="500" y="710" width="260" height="55" rx="10" fill="#DCFCE7" stroke="#334155" stroke-width="1.5"/><text x="630.0" y="738" font-family="Arial" font-size="14" text-anchor="middle" fill="#0f172a">Fim</text><line x1="630" y1="125" x2="560" y2="150" stroke="#475569" stroke-width="1.5" marker-end="url(#arrow)"/><line x1="560" y1="205" x2="585" y2="240" stroke="#475569" stroke-width="1.5" marker-end="url(#arrow)"/><line x1="585" y1="295" x2="575" y2="335" stroke="#475569" stroke-width="1.5" marker-end="url(#arrow)"/><text x="580.0" y="309.0" font-family="Arial" font-size="12" text-anchor="middle" fill="#334155">Sim</text><line x1="575" y1="390" x2="585" y2="430" stroke="#475569" stroke-width="1.5" marker-end="url(#arrow)"/><text x="580.0" y="404.0" font-family="Arial" font-size="12" text-anchor="middle" fill="#334155">Sim</text><line x1="585" y1="485" x2="540" y2="525" stroke="#475569" stroke-width="1.5" marker-end="url(#arrow)"/><text x="562.5" y="499.0" font-family="Arial" font-size="12" text-anchor="middle" fill="#334155">Sim</text><line x1="540" y1="580" x2="560" y2="620" stroke="#475569" stroke-width="1.5" marker-end="url(#arrow)"/><line x1="560" y1="675" x2="630" y2="710" stroke="#475569" stroke-width="1.5" marker-end="url(#arrow)"/><rect x="80" y="355" width="250" height="55" rx="10" fill="#FEE2E2" stroke="#334155" stroke-width="1.5"/><text x="205.0" y="383" font-family="Arial" font-size="14" text-anchor="middle" fill="#0f172a">Marcar certificado como pendente</text><line x1="445" y1="362" x2="330" y2="382" stroke="#475569" stroke-width="1.5" marker-end="url(#arrow)"/><text x="387.5" y="366.0" font-family="Arial" font-size="12" text-anchor="middle" fill="#334155">Nao</text><line x1="205" y1="410" x2="630" y2="710" stroke="#475569" stroke-width="1.5" marker-end="url(#arrow)"/><rect x="830" y="450" width="250" height="55" rx="10" fill="#E0F2FE" stroke="#334155" stroke-width="1.5"/><text x="955.0" y="478" font-family="Arial" font-size="14" text-anchor="middle" fill="#0f172a">Exibir certificado existente</text><line x1="715" y1="457" x2="830" y2="477" stroke="#475569" stroke-width="1.5" marker-end="url(#arrow)"/><text x="772.5" y="461.0" font-family="Arial" font-size="12" text-anchor="middle" fill="#334155">Sim</text><line x1="955" y1="505" x2="630" y2="710" stroke="#475569" stroke-width="1.5" marker-end="url(#arrow)"/></svg>