<svg xmlns="http://www.w3.org/2000/svg" width="1200" height="780" viewBox="0 0 1200 780"><rect width="100%" height="100%" fill="white"/><defs><marker id="arrow" markerWidth="10" markerHeight="10" refX="10" refY="3" orient="auto" markerUnits="strokeWidth"><path d="M0,0 L0,6 L9,3 z" fill="#475569"/></marker></defs><text x="600" y="35" font-family="Arial" font-size="24" font-weight="bold" text-anchor="middle" fill="#0f172a">MER Conceitual - Sistema de Treinamentos</text><rect x="40" y="80" width="160" height="58" rx="10" fill="#F8FAFC" stroke="#334155" stroke-width="1.5"/><text x="120.0" y="108" font-family="Arial" font-size="14" text-anchor="middle" fill="#0f172a">AREA</text><rect x="250" y="80" width="160" height="58" rx="10" fill="#F8FAFC" stroke="#334155" stroke-width="1.5"/><text x="330.0" y="108" font-family="Arial" font-size="14" text-anchor="middle" fill="#0f172a">PESSOA</text><rect x="500" y="80" width="160" height="58" rx="10" fill="#F8FAFC" stroke="#334155" stroke-width="1.5"/><text x="580.0" y="108" font-family="Arial" font-size="14" text-anchor="middle" fill="#0f172a">TREINAMENTO</text><rect x="780" y="80" width="160" height="58" rx="10" fill="#F8FAFC" stroke="#334155" stroke-width="1.5"/><text x="860.0" y="108" font-family="Arial" font-size="14" text-anchor="middle" fill="#0f172a">TREINAMENTO</text><text x="860.0" y="126" font-family="Arial" font-size="14" text-anchor="middle" fill="#0f172a">PARTICIPANTE</text><rect x="780" y="260" width="160" height="58" rx="10" fill="#F8FAFC" stroke="#334155" stroke-width="1.5"/><text x="860.0" y="288" font-family="Arial" font-size="14" text-anchor="middle" fill="#0f172a">CERTIFICADO</text><text x="860.0" y="306" font-family="Arial" font-size="14" text-anchor="middle" fill="#0f172a">TREINAMENTO</text><rect x="500" y="260" width="160" height="58" rx="10" fill="#F8FAFC" stroke="#334155" stroke-width="1.5"/><text x="580.0" y="288" font-family="Arial" font-size="14" text-anchor="middle" fill="#0f172a">TIPO</text><text x="580.0" y="306" font-family="Arial" font-size="14" text-anchor="middle" fill="#0f172a">TREINAMENTO</text><rect x="500" y="400" width="160" height="58" rx="10" fill="#F8FAFC" stroke="#334155" stroke-width="1.5"/><text x="580.0" y="428" font-family="Arial" font-size="14" text-anchor="middle" fill="#0f172a">STATUS</text><text x="580.0" y="446" font-family="Arial" font-size="14" text-anchor="middle" fill="#0f172a">TREINAMENTO</text><rect x="500" y="540" width="160" height="58" rx="10" fill="#F8FAFC" stroke="#334155" stroke-width="1.5"/><text x="580.0" y="568" font-family="Arial" font-size="14" text-anchor="middle" fill="#0f172a">LOCAL</text><text x="580.0" y="586" font-family="Arial" font-size="14" text-anchor="middle" fill="#0f172a">TREINAMENTO</text><rect x="1010" y="80" width="160" height="58" rx="10" fill="#F8FAFC" stroke="#334155" stroke-width="1.5"/><text x="1090.0" y="108" font-family="Arial" font-size="14" text-anchor="middle" fill="#0f172a">STATUS</text><text x="1090.0" y="126" font-family="Arial" font-size="14" text-anchor="middle" fill="#0f172a">PARTICIPACAO</text><rect x="1010" y="260" width="160" height="58" rx="10" fill="#F8FAFC" stroke="#334155" stroke-width="1.5"/><text x="1090.0" y="288" font-family="Arial" font-size="14" text-anchor="middle" fill="#0f172a">STATUS</text><text x="1090.0" y="306" font-family="Arial" font-size="14" text-anchor="middle" fill="#0f172a">CERTIFICADO</text><line x1="200" y1="109" x2="250" y2="109" stroke="#475569" stroke-width="1.5" marker-end="url(#arrow)"/><text x="225.0" y="103.0" font-family="Arial" font-size="12" text-anchor="middle" fill="#334155">1:N</text><line x1="410" y1="109" x2="500" y2="109" stroke="#475569" stroke-width="1.5" marker-end="url(#arrow)"/><text x="455.0" y="103.0" font-family="Arial" font-size="12" text-anchor="middle" fill="#334155">1:N</text><line x1="660" y1="109" x2="780" y2="109" stroke="#475569" stroke-width="1.5" marker-end="url(#arrow)"/><text x="720.0" y="103.0" font-family="Arial" font-size="12" text-anchor="middle" fill="#334155">1:N</text><line x1="940" y1="109" x2="1010" y2="109" stroke="#475569" stroke-width="1.5" marker-end="url(#arrow)"/><text x="975.0" y="103.0" font-family="Arial" font-size="12" text-anchor="middle" fill="#334155">N:1</text><line x1="660" y1="125" x2="780" y2="289" stroke="#475569" stroke-width="1.5" marker-end="url(#arrow)"/><text x="720.0" y="201.0" font-family="Arial" font-size="12" text-anchor="middle" fill="#334155">1:N</text><line x1="940" y1="289" x2="1010" y2="289" stroke="#475569" stroke-width="1.5" marker-end="url(#arrow)"/><text x="975.0" y="283.0" font-family="Arial" font-size="12" text-anchor="middle" fill="#334155">N:1</text><line x1="580" y1="318" x2="580" y2="138" stroke="#475569" stroke-width="1.5" marker-end="url(#arrow)"/><text x="580.0" y="222.0" font-family="Arial" font-size="12" text-anchor="middle" fill="#334155">1:N</text><line x1="580" y1="458" x2="580" y2="138" stroke="#475569" stroke-width="1.5" marker-end="url(#arrow)"/><text x="580.0" y="292.0" font-family="Arial" font-size="12" text-anchor="middle" fill="#334155">1:N</text><line x1="580" y1="598" x2="580" y2="138" stroke="#475569" stroke-width="1.5" marker-end="url(#arrow)"/><text x="580.0" y="362.0" font-family="Arial" font-size="12" text-anchor="middle" fill="#334155">1:N</text></svg>