<svg xmlns="http://www.w3.org/2000/svg" width="1200" height="780" viewBox="0 0 1200 780"><rect width="100%" height="100%" fill="white"/><defs><marker id="arrow" markerWidth="10" markerHeight="10" refX="10" refY="3" orient="auto" markerUnits="strokeWidth"><path d="M0,0 L0,6 L9,3 z" fill="#475569"/></marker></defs><text x="600" y="35" font-family="Arial" font-size="24" font-weight="bold" text-anchor="middle" fill="#0f172a">MER Logico - Tabelas, PK e FK</text><rect x="40" y="90" width="180" height="80" rx="10" fill="#F8FAFC" stroke="#334155" stroke-width="1.5"/><text x="130.0" y="118" font-family="Arial" font-size="14" text-anchor="middle" fill="#0f172a">area</text><text x="130.0" y="136" font-family="Arial" font-size="14" text-anchor="middle" fill="#0f172a">PK id</text><text x="130.0" y="154" font-family="Arial" font-size="14" text-anchor="middle" fill="#0f172a">FK conforme relacao</text><rect x="280" y="90" width="180" height="80" rx="10" fill="#F8FAFC" stroke="#334155" stroke-width="1.5"/><text x="370.0" y="118" font-family="Arial" font-size="14" text-anchor="middle" fill="#0f172a">pessoa</text><text x="370.0" y="136" font-family="Arial" font-size="14" text-anchor="middle" fill="#0f172a">PK id</text><text x="370.0" y="154" font-family="Arial" font-size="14" text-anchor="middle" fill="#0f172a">FK conforme relacao</text><rect x="520" y="90" width="180" height="80" rx="10" fill="#F8FAFC" stroke="#334155" stroke-width="1.5"/><text x="610.0" y="118" font-family="Arial" font-size="14" text-anchor="middle" fill="#0f172a">tipo_treinamento</text><text x="610.0" y="136" font-family="Arial" font-size="14" text-anchor="middle" fill="#0f172a">PK id</text><text x="610.0" y="154" font-family="Arial" font-size="14" text-anchor="middle" fill="#0f172a">FK conforme relacao</text><rect x="760" y="90" width="180" height="80" rx="10" fill="#F8FAFC" stroke="#334155" stroke-width="1.5"/><text x="850.0" y="118" font-family="Arial" font-size="14" text-anchor="middle" fill="#0f172a">status_treinamento</text><text x="850.0" y="136" font-family="Arial" font-size="14" text-anchor="middle" fill="#0f172a">PK id</text><text x="850.0" y="154" font-family="Arial" font-size="14" text-anchor="middle" fill="#0f172a">FK conforme relacao</text><rect x="1000" y="90" width="180" height="80" rx="10" fill="#F8FAFC" stroke="#334155" stroke-width="1.5"/><text x="1090.0" y="118" font-family="Arial" font-size="14" text-anchor="middle" fill="#0f172a">local_treinamento</text><text x="1090.0" y="136" font-family="Arial" font-size="14" text-anchor="middle" fill="#0f172a">PK id</text><text x="1090.0" y="154" font-family="Arial" font-size="14" text-anchor="middle" fill="#0f172a">FK conforme relacao</text><rect x="280" y="280" width="180" height="80" rx="10" fill="#F8FAFC" stroke="#334155" stroke-width="1.5"/><text x="370.0" y="308" font-family="Arial" font-size="14" text-anchor="middle" fill="#0f172a">treinamento</text><text x="370.0" y="326" font-family="Arial" font-size="14" text-anchor="middle" fill="#0f172a">PK id</text><text x="370.0" y="344" font-family="Arial" font-size="14" text-anchor="middle" fill="#0f172a">FK conforme relacao</text><rect x="520" y="280" width="180" height="80" rx="10" fill="#F8FAFC" stroke="#334155" stroke-width="1.5"/><text x="610.0" y="308" font-family="Arial" font-size="14" text-anchor="middle" fill="#0f172a">status_participacao</text><text x="610.0" y="326" font-family="Arial" font-size="14" text-anchor="middle" fill="#0f172a">PK id</text><text x="610.0" y="344" font-family="Arial" font-size="14" text-anchor="middle" fill="#0f172a">FK conforme relacao</text><rect x="760" y="280" width="180" height="80" rx="10" fill="#F8FAFC" stroke="#334155" stroke-width="1.5"/><text x="850.0" y="308" font-family="Arial" font-size="14" text-anchor="middle" fill="#0f172a">treinamento_participante</text><text x="850.0" y="326" font-family="Arial" font-size="14" text-anchor="middle" fill="#0f172a">PK id</text><text x="850.0" y="344" font-family="Arial" font-size="14" text-anchor="middle" fill="#0f172a">FK conforme relacao</text><rect x="1000" y="280" width="180" height="80" rx="10" fill="#F8FAFC" stroke="#334155" stroke-width="1.5"/><text x="1090.0" y="308" font-family="Arial" font-size="14" text-anchor="middle" fill="#0f172a">status_certificado</text><text x="1090.0" y="326" font-family="Arial" font-size="14" text-anchor="middle" fill="#0f172a">PK id</text><text x="1090.0" y="344" font-family="Arial" font-size="14" text-anchor="middle" fill="#0f172a">FK conforme relacao</text><rect x="520" y="510" width="180" height="80" rx="10" fill="#F8FAFC" stroke="#334155" stroke-width="1.5"/><text x="610.0" y="538" font-family="Arial" font-size="14" text-anchor="middle" fill="#0f172a">certificado_treinamento</text><text x="610.0" y="556" font-family="Arial" font-size="14" text-anchor="middle" fill="#0f172a">PK id</text><text x="610.0" y="574" font-family="Arial" font-size="14" text-anchor="middle" fill="#0f172a">FK conforme relacao</text><line x1="130" y1="170" x2="370" y2="90" stroke="#475569" stroke-width="1.5" marker-end="url(#arrow)"/><text x="250.0" y="124.0" font-family="Arial" font-size="12" text-anchor="middle" fill="#334155">1:N</text><line x1="370" y1="170" x2="370" y2="280" stroke="#475569" stroke-width="1.5" marker-end="url(#arrow)"/><text x="370.0" y="219.0" font-family="Arial" font-size="12" text-anchor="middle" fill="#334155">1:N</text><line x1="610" y1="170" x2="370" y2="280" stroke="#475569" stroke-width="1.5" marker-end="url(#arrow)"/><text x="490.0" y="219.0" font-family="Arial" font-size="12" text-anchor="middle" fill="#334155">1:N</text><line x1="850" y1="170" x2="370" y2="280" stroke="#475569" stroke-width="1.5" marker-end="url(#arrow)"/><text x="610.0" y="219.0" font-family="Arial" font-size="12" text-anchor="middle" fill="#334155">1:N</text><line x1="1090" y1="170" x2="370" y2="280" stroke="#475569" stroke-width="1.5" marker-end="url(#arrow)"/><text x="730.0" y="219.0" font-family="Arial" font-size="12" text-anchor="middle" fill="#334155">1:N</text><line x1="370" y1="360" x2="850" y2="280" stroke="#475569" stroke-width="1.5" marker-end="url(#arrow)"/><text x="610.0" y="314.0" font-family="Arial" font-size="12" text-anchor="middle" fill="#334155">1:N</text><line x1="370" y1="170" x2="850" y2="280" stroke="#475569" stroke-width="1.5" marker-end="url(#arrow)"/><text x="610.0" y="219.0" font-family="Arial" font-size="12" text-anchor="middle" fill="#334155">1:N</text><line x1="610" y1="360" x2="850" y2="280" stroke="#475569" stroke-width="1.5" marker-end="url(#arrow)"/><text x="730.0" y="314.0" font-family="Arial" font-size="12" text-anchor="middle" fill="#334155">1:N</text><line x1="370" y1="360" x2="610" y2="510" stroke="#475569" stroke-width="1.5" marker-end="url(#arrow)"/><text x="490.0" y="429.0" font-family="Arial" font-size="12" text-anchor="middle" fill="#334155">1:N</text><line x1="370" y1="170" x2="610" y2="510" stroke="#475569" stroke-width="1.5" marker-end="url(#arrow)"/><text x="490.0" y="334.0" font-family="Arial" font-size="12" text-anchor="middle" fill="#334155">1:N</text><line x1="1090" y1="360" x2="610" y2="510" stroke="#475569" stroke-width="1.5" marker-end="url(#arrow)"/><text x="850.0" y="429.0" font-family="Arial" font-size="12" text-anchor="middle" fill="#334155">1:N</text></svg>